# xmcd CD database file
#
# Track frame offsets:
#	150
#	24238
#	40860
#	55798
#	95260
#	121845
#	145750
#	163900
#	185430
#	233928
#	255061
#	279911
#	305436
#	321761
#
# Disc length: 4592 seconds
#
# Revision: 0
# Processed by: cddbd v1.5.1PL0 Copyright (c) Steve Scherf et al.
# Submitted via: CDex 1.51
#
DISCID=ac11ee0e
DTITLE=Albert King - 1974 - Funky London - 1972 - Live at WATTSTAX
DYEAR=1972
DGENRE=Blues
TTITLE0=Cold Sweat
TTITLE1=Can't You See What You're Doing To Me
TTITLE2=Funky London
TTITLE3=Lonesome
TTITLE4=Bad Luck
TTITLE5=Sweet Fingers
TTITLE6=Finger On The Trigger
TTITLE7=Drivin' Wheel
TTITLE8=Lovingest Woman In Town
TTITLE9=Matchbox Blues
TTITLE10=Go To Be Some Changes Made
TTITLE11=I'll Play The Blues For You
TTITLE12=Killing Floor
TTITLE13=Angel Of Mercy
EXTD=YEAR: 1972
EXTT0=
EXTT1=
EXTT2=
EXTT3=
EXTT4=
EXTT5=
EXTT6=
EXTT7=
EXTT8=
EXTT9=
EXTT10=
EXTT11=
EXTT12=
EXTT13=
PLAYORDER=
